<?xml version="1.0" encoding="UTF-8" standalone="no"?>
<!-- Created with Inkscape (http://www.inkscape.org/) -->

<svg
   xmlns:dc="http://purl.org/dc/elements/1.1/"
   xmlns:cc="http://creativecommons.org/ns#"
   xmlns:rdf="http://www.w3.org/1999/02/22-rdf-syntax-ns#"
   xmlns:svg="http://www.w3.org/2000/svg"
   xmlns="http://www.w3.org/2000/svg"
   xmlns:sodipodi="http://sodipodi.sourceforge.net/DTD/sodipodi-0.dtd"
   xmlns:inkscape="http://www.inkscape.org/namespaces/inkscape"
   id="svg2"
   version="1.1"
   inkscape:version="0.91 r13725"
   xml:space="preserve"
   width="28.005369"
   height="28.005369"
   viewBox="0 0 28.005368 28.005369"
   sodipodi:docname="ayuntamiento-de-santa-cruz-de-tenerife.svg"><metadata
     id="metadata8"><rdf:RDF><cc:Work
         rdf:about=""><dc:format>image/svg+xml</dc:format><dc:type
           rdf:resource="http://purl.org/dc/dcmitype/StillImage" /><dc:title></dc:title></cc:Work></rdf:RDF></metadata><defs
     id="defs6" /><sodipodi:namedview
     pagecolor="#ffffff"
     bordercolor="#666666"
     borderopacity="1"
     objecttolerance="10"
     gridtolerance="10"
     guidetolerance="10"
     inkscape:pageopacity="0"
     inkscape:pageshadow="2"
     inkscape:window-width="1920"
     inkscape:window-height="1021"
     id="namedview4"
     showgrid="false"
     fit-margin-top="0"
     fit-margin-left="0"
     fit-margin-right="0"
     fit-margin-bottom="0"
     showguides="false"
     inkscape:zoom="6.1712134"
     inkscape:cx="7.5584411"
     inkscape:cy="10.476186"
     inkscape:window-x="0"
     inkscape:window-y="0"
     inkscape:window-maximized="1"
     inkscape:current-layer="g10" /><g
     id="g10"
     inkscape:groupmode="layer"
     inkscape:label="ink_ext_XXXXXX"
     transform="matrix(1.25,0,0,-1.25,0,53.878871)"><path
       inkscape:connector-curvature="0"
       id="path14"
       style="fill:#FFFFFF;fill-opacity:1;fill-rule:nonzero;stroke:none"
       d="m 12.101577,34.973 c -0.13164,-0.1312 -0.28398,-0.2285 -0.44609,-0.2898 -0.39844,-0.1496 -0.85394,-0.0957 -1.20584,0.1633 l -0.1481,0.1265 -1.7988001,1.7989 c -0.4957,0.4972 -0.4957,1.3023 0,1.7996 0.4992,0.4969 1.3031,0.4969 1.7988001,0 l 0.67581,-0.6746 c 0.12461,-0.125 0.32578,-0.125 0.44961,0 l 0.67461,0.6746 c 0.49844,0.4969 1.30469,0.4969 1.79922,0 0.49766,-0.4973 0.49766,-1.3024 0,-1.7996 l -1.79922,-1.7989 z m 0.61367,-2.2562 c -0.14961,0.3965 -0.09531,0.8535 0.16485,1.2051 l 0.12617,0.1469 1.79922,1.8 c 0.4957,0.4968 1.30195,0.4968 1.79804,0 0.49727,-0.4973 0.49727,-1.3043 0,-1.8 l -0.67382,-0.6747 c -0.12305,-0.125 -0.12305,-0.3242 0,-0.4507 l 0.67382,-0.6735 c 0.49727,-0.4961 0.49727,-1.3027 0,-1.7996 -0.49609,-0.4973 -1.30234,-0.4973 -1.79804,0 l -1.79922,1.7996 c -0.13125,0.1309 -0.22852,0.2852 -0.29102,0.4469 m -2.4137,-1.3512 0.1465,0.125 c 0.2242,0.1653 0.4883,0.2473 0.75431,0.2473 0.26563,0 0.52852,-0.082 0.75391,-0.2473 l 0.14531,-0.125 1.79922,-1.7988 c 0.44609,-0.4473 0.49297,-1.1445 0.13437,-1.6414 l -1.71367,-2.7492 c -0.21562,-0.3985 -0.63515,-0.6688 -1.11914,-0.6688 -0.48551,0 -0.90551,0.2703 -1.12031,0.6688 l -1.7137001,2.7492 c -0.3578,0.4969 -0.3129,1.1941 0.1324,1.6414 l 1.8008001,1.7988 z m 0.90081,11.7375 c 5.39414,0 9.76719,-5.016 9.76719,-11.2011 0,-6.1868 -4.37305,-11.2032 -9.76719,-11.2032 -5.3945101,0 -9.7676101,5.0164 -9.7676101,11.2032 0,6.1851 4.3731,11.2011 9.7676101,11.2011 m 0,-20.4933 c 4.3336,0 7.85938,4.1672 7.85938,9.2922 0,5.1242 -3.52578,9.2921 -7.85938,9.2921 -4.3324101,0 -7.8566101,-4.1679 -7.8566101,-9.2921 0,-5.125 3.5242,-9.2922 7.8566101,-9.2922 M 6.4746469,32.9434 c 0.125,0.1265 0.125,0.3257 0,0.4507 l -0.675,0.6747 c -0.4946,0.4957 -0.4946,1.3027 0,1.8 0.4976,0.4968 1.3039,0.4968 1.8008,0 l 1.798,-1.8 c 0.1297,-0.1309 0.2285,-0.2848 0.2898,-0.4477 0.1504,-0.3973 0.0958,-0.852 -0.1636,-1.2047 l -0.1262,-0.1465 -1.798,-1.7996 c -0.4969,-0.4973 -1.3032,-0.4973 -1.8008,0 -0.4946,0.4969 -0.4946,1.3035 0,1.7996 l 0.675,0.6735" /></g></svg>
