<?xml version="1.0" standalone="no"?>
<!DOCTYPE svg PUBLIC "-//W3C//DTD SVG 20010904//EN"
 "http://www.w3.org/TR/2001/REC-SVG-20010904/DTD/svg10.dtd">
<svg version="1.0" xmlns="http://www.w3.org/2000/svg"
 width="700.000000pt" height="700.000000pt" viewBox="0 0 700.000000 700.000000"
 preserveAspectRatio="xMidYMid meet">
<metadata>
Created by potrace 1.11, written by Peter Selinger 2001-2013
</metadata>
<g transform="translate(0.000000,700.000000) scale(0.100000,-0.100000)"
fill="#000000" stroke="none">
<path d="M3329 6996 c-2 -2 -40 -6 -84 -10 -98 -7 -266 -36 -415 -71 -261 -62
-598 -214 -860 -388 -243 -162 -518 -413 -704 -643 -204 -253 -404 -590 -522
-883 -19 -48 -39 -95 -44 -106 -20 -44 -90 -268 -124 -395 -34 -131 -77 -348
-91 -460 -4 -30 -9 -66 -10 -80 -27 -206 -27 -757 0 -921 2 -13 6 -46 10 -74
7 -61 21 -147 40 -240 8 -38 16 -81 19 -95 2 -14 16 -70 31 -125 15 -55 31
-113 35 -130 52 -200 213 -580 327 -773 24 -40 43 -74 43 -77 0 -7 163 -250
208 -310 382 -503 874 -870 1425 -1064 122 -43 276 -84 361 -97 22 -3 43 -7
47 -10 3 -2 24 -6 45 -8 21 -3 55 -8 75 -11 87 -14 125 -16 314 -19 235 -4
365 7 560 45 171 34 410 106 540 164 171 76 322 157 455 243 50 33 198 140
210 152 3 3 28 23 55 45 171 136 395 371 547 575 164 221 338 528 433 765 15
39 34 84 41 101 61 140 167 534 199 734 3 19 10 60 15 90 5 30 12 84 15 120 3
36 10 101 15 145 9 81 6 629 -3 675 -3 14 -8 54 -12 89 -11 119 -38 278 -71
426 -14 61 -27 117 -29 126 -16 72 -119 390 -145 444 -5 11 -21 49 -36 85 -83
203 -231 472 -368 665 -58 83 -137 188 -147 195 -3 3 -30 34 -60 70 -30 36
-106 117 -169 180 -364 365 -790 620 -1260 755 -63 18 -131 36 -150 40 -19 3
-42 8 -50 9 -8 2 -33 7 -55 11 -60 11 -66 12 -130 20 -33 4 -69 9 -80 12 -24
5 -441 13 -446 9z m334 -600 c68 -5 133 -14 242 -32 56 -9 183 -44 267 -72
727 -248 1313 -869 1602 -1701 54 -156 125 -436 140 -556 3 -22 10 -76 16
-120 14 -108 24 -275 24 -420 0 -118 -12 -346 -19 -369 -2 -6 -6 -36 -10 -66
-25 -241 -114 -579 -222 -840 -112 -273 -322 -611 -506 -816 -78 -88 -222
-225 -297 -286 -41 -33 -84 -67 -95 -76 -104 -86 -356 -227 -519 -291 -97 -39
-288 -97 -346 -106 -25 -4 -47 -8 -50 -10 -3 -2 -30 -6 -60 -10 -30 -4 -57 -8
-60 -10 -10 -6 -186 -17 -271 -17 -232 0 -472 42 -706 123 -94 32 -376 165
-381 180 -2 5 -8 9 -13 9 -24 0 -241 156 -353 254 -202 177 -369 375 -517 610
-162 260 -293 563 -374 871 -38 142 -76 353 -90 490 -3 33 -8 85 -11 115 -7
70 -6 427 0 500 13 137 18 181 32 275 9 55 25 141 36 190 11 50 21 98 23 108
14 66 94 311 137 416 219 544 575 995 1023 1296 241 161 611 308 860 341 28 3
59 8 70 10 11 2 61 7 110 10 50 4 91 7 92 8 3 2 152 -3 226 -8z"/>
<path d="M2813 5678 c-114 -37 -224 -151 -254 -263 -29 -103 -13 -226 38 -315
15 -25 171 -189 347 -365 258 -258 332 -326 376 -347 123 -60 250 -57 370 8
70 37 670 633 715 709 126 217 15 497 -230 580 -42 14 -135 16 -191 5 -96 -20
-149 -56 -295 -198 -145 -141 -175 -159 -225 -137 -16 7 -90 73 -164 146 -163
161 -216 191 -345 195 -58 1 -97 -3 -142 -18z"/>
<path d="M2001 4842 c-261 -58 -386 -368 -241 -595 17 -27 84 -102 150 -169
132 -132 140 -142 140 -189 0 -27 -18 -50 -133 -168 -73 -75 -142 -149 -153
-166 -87 -129 -86 -308 3 -442 93 -141 285 -210 438 -159 99 34 130 60 450
380 288 288 325 328 356 391 32 65 34 76 34 170 0 92 -3 105 -33 169 -29 63
-62 99 -335 374 -166 167 -323 319 -349 338 -91 67 -212 92 -327 66z"/>
<path d="M4840 4848 c-113 -17 -143 -40 -473 -368 -170 -168 -323 -325 -342
-350 -61 -83 -89 -209 -70 -315 3 -16 20 -59 37 -94 27 -57 73 -106 354 -387
229 -230 337 -330 371 -347 140 -71 282 -64 411 21 100 66 173 198 173 311 -1
149 -33 211 -185 367 -160 162 -166 170 -166 208 0 41 11 55 160 206 88 90
127 137 149 183 142 292 -97 615 -419 565z"/>
<path d="M3405 3437 c-113 -35 -131 -50 -467 -386 -299 -298 -330 -332 -359
-395 -28 -59 -32 -80 -33 -155 -1 -50 5 -105 13 -131 17 -52 608 -1005 657
-1060 38 -42 126 -91 197 -110 113 -30 268 14 358 101 30 29 130 179 289 434
134 215 248 399 254 410 6 11 29 47 51 80 116 178 122 345 19 490 -51 72 -623
643 -675 674 -87 51 -224 73 -304 48z"/>
</g>
</svg>
